G04 EAGLE Gerber RS-274X export*
G75*
%MOMM*%
%FSLAX34Y34*%
%LPD*%
%INTop Copper*%
%IPPOS*%
%AMOC8*
5,1,8,0,0,1.08239X$1,22.5*%
G01*
%ADD10C,1.216000*%
%ADD11C,1.408000*%
%ADD12C,1.320800*%
%ADD13C,1.320800*%
%ADD14C,1.879600*%
%ADD15C,1.308000*%
%ADD16C,2.100000*%
%ADD17C,0.254000*%


D10*
X1028700Y558800D03*
X1079500Y558800D03*
X876300Y1117600D03*
X876300Y1168400D03*
X1295400Y977900D03*
X1295400Y927100D03*
X914400Y812800D03*
X863600Y812800D03*
X774700Y1117600D03*
X774700Y1168400D03*
X952500Y889000D03*
X901700Y889000D03*
X1016000Y863600D03*
X1066800Y863600D03*
X1358900Y660400D03*
X1409700Y660400D03*
X1104900Y723900D03*
X1104900Y774700D03*
X1079500Y660400D03*
X1028700Y660400D03*
X1155700Y990600D03*
X1155700Y939800D03*
X1028700Y774700D03*
X1028700Y723900D03*
X774700Y571500D03*
X723900Y571500D03*
X762000Y812800D03*
X812800Y812800D03*
X939800Y609600D03*
X889000Y609600D03*
X749300Y685800D03*
X800100Y685800D03*
D11*
X838200Y556100D03*
X838200Y536100D03*
D12*
X1072896Y914400D02*
X1086104Y914400D01*
X1086104Y939800D02*
X1072896Y939800D01*
X1072896Y965200D02*
X1086104Y965200D01*
X1086104Y990600D02*
X1072896Y990600D01*
X1009904Y990600D02*
X996696Y990600D01*
X996696Y965200D02*
X1009904Y965200D01*
X1009904Y939800D02*
X996696Y939800D01*
X996696Y914400D02*
X1009904Y914400D01*
D13*
X850900Y749300D03*
X850900Y723900D03*
X927100Y723900D03*
X927100Y749300D03*
X850900Y698500D03*
X850900Y673100D03*
X927100Y698500D03*
X927100Y673100D03*
D14*
X800100Y1054100D03*
X825500Y1054100D03*
X850900Y1054100D03*
X876300Y1054100D03*
X901700Y1054100D03*
X927100Y1054100D03*
X952500Y1054100D03*
X977900Y1054100D03*
X1003300Y1054100D03*
X1028700Y1054100D03*
X1054100Y1054100D03*
X1079500Y1054100D03*
X1104900Y1054100D03*
X1104900Y1079500D03*
X1079500Y1079500D03*
X1054100Y1079500D03*
X1028700Y1079500D03*
X1003300Y1079500D03*
X977900Y1079500D03*
X952500Y1079500D03*
X927100Y1079500D03*
X901700Y1079500D03*
X876300Y1079500D03*
X850900Y1079500D03*
X825500Y1079500D03*
X800100Y1079500D03*
X1130300Y1054100D03*
X1130300Y1079500D03*
X1155700Y1054100D03*
X1155700Y1079500D03*
X1181100Y1054100D03*
X1181100Y1079500D03*
X1206500Y1054100D03*
X1206500Y1079500D03*
X1231900Y1054100D03*
X1231900Y1079500D03*
X1257300Y1054100D03*
X1257300Y1079500D03*
X1282700Y1054100D03*
X1282700Y1079500D03*
D15*
X990600Y1130300D03*
X1149600Y1130300D03*
X800100Y990600D03*
X959100Y990600D03*
X1219200Y723900D03*
X1219200Y882900D03*
X1155700Y660400D03*
X1314700Y660400D03*
X1308100Y558800D03*
X1149100Y558800D03*
X1333500Y609600D03*
X1174500Y609600D03*
X977900Y609600D03*
X1136900Y609600D03*
X1168400Y723900D03*
X1168400Y882900D03*
X965200Y698500D03*
X965200Y857500D03*
X698500Y838200D03*
X698500Y679200D03*
X863600Y889000D03*
X704600Y889000D03*
X698500Y635000D03*
X857500Y635000D03*
X863600Y939800D03*
X704600Y939800D03*
D11*
X934400Y556100D03*
X934400Y536100D03*
X914400Y556100D03*
X914400Y536100D03*
X894400Y556100D03*
X894400Y536100D03*
D16*
X1384300Y863600D03*
X1334300Y738600D03*
X1284300Y863600D03*
D17*
X1148080Y557784D02*
X1129792Y557784D01*
X1109472Y537464D01*
X1049528Y537464D01*
X1029208Y557784D01*
X1148080Y557784D02*
X1149100Y558800D01*
X1029208Y557784D02*
X1028700Y558800D01*
X934400Y556100D02*
X934400Y536100D01*
X937100Y558800D02*
X1028700Y558800D01*
X937100Y558800D02*
X934400Y556100D01*
X1079500Y559308D02*
X1085596Y559308D01*
X1135888Y609600D01*
X1079500Y559308D02*
X1079500Y558800D01*
X1135888Y609600D02*
X1136900Y609600D01*
X1174500Y609600D01*
X983488Y615696D02*
X977392Y609600D01*
X983488Y615696D02*
X1027684Y659892D01*
X1028700Y660400D01*
X977900Y609600D02*
X977392Y609600D01*
X983488Y615696D02*
X927100Y672084D01*
X927100Y673100D01*
X1104900Y723900D02*
X1168400Y723900D01*
X1155700Y939800D02*
X1079500Y939800D01*
X1104900Y889000D02*
X1155700Y939800D01*
X1104900Y889000D02*
X1104900Y838200D01*
X1041400Y774700D01*
X1028700Y774700D01*
X1028700Y794000D01*
X965200Y857500D01*
X939800Y832100D01*
X939800Y736600D01*
X927100Y723900D01*
X1002284Y698500D02*
X1027684Y723900D01*
X1028700Y723900D01*
X1002284Y698500D02*
X965200Y698500D01*
X1318292Y738600D02*
X1334300Y738600D01*
X1318292Y738600D02*
X1285748Y771144D01*
X1091692Y723900D02*
X1028700Y723900D01*
X1091692Y723900D02*
X1138936Y771144D01*
X1282700Y771144D02*
X1285748Y771144D01*
X1282700Y771144D02*
X1138936Y771144D01*
X965200Y698500D02*
X927100Y698500D01*
X1282700Y862000D02*
X1284300Y863600D01*
X1282700Y862000D02*
X1282700Y771144D01*
X1041400Y977900D02*
X1003300Y939800D01*
X1041400Y977900D02*
X1041400Y990600D01*
X1079500Y1028700D01*
X1079500Y1054100D01*
X1003300Y1014984D02*
X1003300Y990600D01*
X1003300Y1014984D02*
X1028700Y1040384D01*
X1028700Y1054100D01*
X1016000Y965200D02*
X1003300Y965200D01*
X1016000Y965200D02*
X1016000Y977900D01*
X1028700Y990600D01*
X1028700Y1003300D01*
X1054100Y1028700D01*
X1054100Y1054100D01*
X1003300Y914400D02*
X1015492Y902208D01*
X952500Y984000D02*
X959100Y990600D01*
X952500Y984000D02*
X952500Y889000D01*
X990600Y889000D01*
X1015492Y902208D02*
X1015492Y864108D01*
X1016000Y863600D01*
X990600Y889000D01*
X1054100Y939800D02*
X1079500Y914400D01*
X1054100Y939800D02*
X1054100Y990600D01*
X1092200Y1028700D01*
X1092200Y1066800D01*
X1079500Y1079500D01*
X1219200Y723900D02*
X1251200Y723900D01*
X1314700Y660400D01*
X1358900Y660400D01*
X1333500Y635000D01*
X1333500Y609600D01*
X914908Y762000D02*
X914908Y812292D01*
X914908Y762000D02*
X927100Y749808D01*
X914908Y812292D02*
X914400Y812800D01*
X927100Y749808D02*
X927100Y749300D01*
X1294384Y964184D02*
X1294384Y976884D01*
X1295400Y977900D01*
X1294384Y964184D02*
X1219200Y888915D01*
X1219200Y882900D01*
X1321816Y1097788D02*
X1290320Y1129284D01*
X1150620Y1129284D01*
X1321816Y1097788D02*
X1321816Y1004316D01*
X1295400Y977900D01*
X1150620Y1129284D02*
X1149600Y1130300D01*
X705612Y938788D02*
X704600Y939800D01*
X705612Y938788D02*
X705612Y890012D01*
X704600Y889000D01*
X704600Y844300D01*
X698500Y838200D01*
X736600Y838200D02*
X762000Y812800D01*
X736600Y838200D02*
X698500Y838200D01*
X701774Y685800D02*
X749300Y685800D01*
X701774Y685800D02*
X698500Y679200D01*
X699516Y678184D01*
X699516Y636016D01*
X698500Y635000D01*
X838200Y685800D02*
X850900Y698500D01*
X838200Y654300D02*
X857500Y635000D01*
X838200Y654300D02*
X838200Y685800D01*
X857500Y635000D02*
X794000Y571500D01*
X774700Y571500D01*
X901700Y647700D02*
X901700Y673100D01*
X901700Y647700D02*
X939800Y609600D01*
X901700Y673100D02*
X850900Y723900D01*
X812800Y685800D02*
X800100Y685800D01*
X812800Y685800D02*
X850900Y723900D01*
X850900Y749300D01*
X866140Y609600D02*
X889000Y609600D01*
X866140Y609600D02*
X838200Y581660D01*
X838200Y556100D01*
X914400Y1024636D02*
X914400Y1066800D01*
X927100Y1079500D01*
X863600Y973836D02*
X863600Y939800D01*
X863600Y973836D02*
X914400Y1024636D01*
X787400Y1066800D02*
X787400Y1104900D01*
X787400Y1066800D02*
X800100Y1054100D01*
X787400Y1104900D02*
X774700Y1117600D01*
X775208Y1117092D01*
X775208Y990600D01*
X800100Y990600D01*
X800100Y1079500D02*
X800100Y1108964D01*
X867664Y1108964D02*
X876300Y1117600D01*
X867664Y1108964D02*
X800100Y1108964D01*
X876300Y1117600D02*
X889000Y1130300D01*
X990600Y1130300D01*
X1168908Y882396D02*
X1181100Y882396D01*
X1190244Y873252D01*
X1262380Y873252D01*
X1266952Y877824D01*
X1377188Y877824D01*
X1168908Y882396D02*
X1168400Y882900D01*
X1377188Y877824D02*
X1384300Y863600D01*
M02*
