G04 EAGLE Gerber RS-274X export*
G75*
%MOMM*%
%FSLAX34Y34*%
%LPD*%
%INBottom Copper*%
%IPPOS*%
%AMOC8*
5,1,8,0,0,1.08239X$1,22.5*%
G01*
%ADD10C,1.216000*%
%ADD11C,1.408000*%
%ADD12C,1.320800*%
%ADD13C,1.320800*%
%ADD14C,1.879600*%
%ADD15C,1.308000*%
%ADD16C,2.100000*%
%ADD17C,0.254000*%
%ADD18C,0.152400*%


D10*
X1028700Y558800D03*
X1079500Y558800D03*
X876300Y1117600D03*
X876300Y1168400D03*
X1295400Y977900D03*
X1295400Y927100D03*
X914400Y812800D03*
X863600Y812800D03*
X774700Y1117600D03*
X774700Y1168400D03*
X952500Y889000D03*
X901700Y889000D03*
X1016000Y863600D03*
X1066800Y863600D03*
X1358900Y660400D03*
X1409700Y660400D03*
X1104900Y723900D03*
X1104900Y774700D03*
X1079500Y660400D03*
X1028700Y660400D03*
X1155700Y990600D03*
X1155700Y939800D03*
X1028700Y774700D03*
X1028700Y723900D03*
X774700Y571500D03*
X723900Y571500D03*
X762000Y812800D03*
X812800Y812800D03*
X939800Y609600D03*
X889000Y609600D03*
X749300Y685800D03*
X800100Y685800D03*
D11*
X838200Y556100D03*
X838200Y536100D03*
D12*
X1072896Y914400D02*
X1086104Y914400D01*
X1086104Y939800D02*
X1072896Y939800D01*
X1072896Y965200D02*
X1086104Y965200D01*
X1086104Y990600D02*
X1072896Y990600D01*
X1009904Y990600D02*
X996696Y990600D01*
X996696Y965200D02*
X1009904Y965200D01*
X1009904Y939800D02*
X996696Y939800D01*
X996696Y914400D02*
X1009904Y914400D01*
D13*
X850900Y749300D03*
X850900Y723900D03*
X927100Y723900D03*
X927100Y749300D03*
X850900Y698500D03*
X850900Y673100D03*
X927100Y698500D03*
X927100Y673100D03*
D14*
X800100Y1054100D03*
X825500Y1054100D03*
X850900Y1054100D03*
X876300Y1054100D03*
X901700Y1054100D03*
X927100Y1054100D03*
X952500Y1054100D03*
X977900Y1054100D03*
X1003300Y1054100D03*
X1028700Y1054100D03*
X1054100Y1054100D03*
X1079500Y1054100D03*
X1104900Y1054100D03*
X1104900Y1079500D03*
X1079500Y1079500D03*
X1054100Y1079500D03*
X1028700Y1079500D03*
X1003300Y1079500D03*
X977900Y1079500D03*
X952500Y1079500D03*
X927100Y1079500D03*
X901700Y1079500D03*
X876300Y1079500D03*
X850900Y1079500D03*
X825500Y1079500D03*
X800100Y1079500D03*
X1130300Y1054100D03*
X1130300Y1079500D03*
X1155700Y1054100D03*
X1155700Y1079500D03*
X1181100Y1054100D03*
X1181100Y1079500D03*
X1206500Y1054100D03*
X1206500Y1079500D03*
X1231900Y1054100D03*
X1231900Y1079500D03*
X1257300Y1054100D03*
X1257300Y1079500D03*
X1282700Y1054100D03*
X1282700Y1079500D03*
D15*
X990600Y1130300D03*
X1149600Y1130300D03*
X800100Y990600D03*
X959100Y990600D03*
X1219200Y723900D03*
X1219200Y882900D03*
X1155700Y660400D03*
X1314700Y660400D03*
X1308100Y558800D03*
X1149100Y558800D03*
X1333500Y609600D03*
X1174500Y609600D03*
X977900Y609600D03*
X1136900Y609600D03*
X1168400Y723900D03*
X1168400Y882900D03*
X965200Y698500D03*
X965200Y857500D03*
X698500Y838200D03*
X698500Y679200D03*
X863600Y889000D03*
X704600Y889000D03*
X698500Y635000D03*
X857500Y635000D03*
X863600Y939800D03*
X704600Y939800D03*
D11*
X934400Y556100D03*
X934400Y536100D03*
X914400Y556100D03*
X914400Y536100D03*
X894400Y556100D03*
X894400Y536100D03*
D16*
X1384300Y863600D03*
X1334300Y738600D03*
X1284300Y863600D03*
D17*
X850900Y1079500D02*
X850900Y1092200D01*
X825500Y1117600D01*
X825500Y1168400D01*
X774700Y1168400D01*
X825500Y1168400D02*
X876300Y1168400D01*
X952500Y1092200D02*
X952500Y1079500D01*
X952500Y1092200D02*
X939800Y1104900D01*
X876300Y1168400D01*
X888492Y1067308D02*
X901700Y1054100D01*
X859058Y1079500D02*
X850900Y1079500D01*
X871250Y1067308D02*
X888492Y1067308D01*
X871250Y1067308D02*
X859058Y1079500D01*
X1003300Y1104900D02*
X1028700Y1079500D01*
X1003300Y1104900D02*
X939800Y1104900D01*
X1130300Y1104900D02*
X1155700Y1079500D01*
X1130300Y1104900D02*
X1003300Y1104900D01*
X1181100Y1104900D02*
X1206500Y1079500D01*
X1181100Y1104900D02*
X1130300Y1104900D01*
X1282700Y1054100D02*
X1282700Y990600D01*
X1282700Y939800D01*
X1295400Y927100D01*
X1282700Y1054100D02*
X1308100Y1054100D01*
X1308100Y1092200D01*
X1295400Y1104900D01*
X1181100Y1104900D01*
X825500Y673100D02*
X723900Y571500D01*
X825500Y673100D02*
X850900Y673100D01*
X812800Y711200D01*
X812800Y812800D01*
X863600Y812800D01*
X863600Y850900D01*
X901700Y889000D01*
X749300Y571500D02*
X723900Y571500D01*
X794534Y526266D02*
X884566Y526266D01*
X794534Y526266D02*
X749300Y571500D01*
X884566Y526266D02*
X894400Y536100D01*
X1079500Y660400D02*
X1155700Y660400D01*
X1308100Y558800D02*
X1409700Y660400D01*
X1079500Y660400D02*
X1079500Y774700D01*
X1104900Y774700D01*
X1143000Y774700D02*
X1295400Y927100D01*
X1143000Y774700D02*
X1104900Y774700D01*
X914400Y876300D02*
X901700Y889000D01*
X914400Y876300D02*
X970800Y876300D01*
X1041250Y863600D02*
X1066800Y863600D01*
X1041250Y863600D02*
X1019676Y885174D01*
X979674Y885174D02*
X970800Y876300D01*
X979674Y885174D02*
X1019676Y885174D01*
X1155700Y660400D02*
X1257300Y558800D01*
X1308100Y558800D01*
X1066800Y863600D02*
X1130300Y927100D01*
X1295400Y927100D01*
X1079500Y965200D02*
X1079500Y990600D01*
X1155700Y990600D01*
X1282700Y990600D01*
X1118108Y1067308D02*
X1104900Y1054100D01*
X1147542Y1079500D02*
X1155700Y1079500D01*
X1135350Y1067308D02*
X1118108Y1067308D01*
X1135350Y1067308D02*
X1147542Y1079500D01*
D18*
X914400Y536100D02*
X894400Y536100D01*
X914400Y536100D02*
X914400Y556100D01*
X894400Y556100D01*
X894400Y536100D01*
D17*
X914908Y812292D02*
X1148588Y812292D01*
X1219196Y882900D02*
X1219200Y882900D01*
X1219196Y882900D02*
X1148588Y812292D01*
X914908Y812292D02*
X914400Y812800D01*
X966216Y1029716D02*
X1182116Y1029716D01*
X1206500Y1054100D01*
X876300Y901700D02*
X863600Y889000D01*
X876300Y939800D02*
X966216Y1029716D01*
X876300Y939800D02*
X876300Y901700D01*
M02*
