G04 EAGLE Gerber RS-274X export*
G75*
%MOMM*%
%FSLAX34Y34*%
%LPD*%
%IN*%
%IPPOS*%
%AMOC8*
5,1,8,0,0,1.08239X$1,22.5*%
G01*
%ADD10C,0.254000*%


D10*
X660400Y482600D02*
X1460300Y482600D01*
X1460300Y1190500D01*
X660400Y1190500D01*
X660400Y482600D01*
X1299300Y789409D02*
X1299375Y791024D01*
X1299524Y792635D01*
X1299747Y794236D01*
X1300045Y795826D01*
X1300415Y797400D01*
X1300857Y798956D01*
X1301371Y800489D01*
X1301956Y801998D01*
X1302609Y803477D01*
X1303330Y804925D01*
X1304117Y806338D01*
X1304968Y807713D01*
X1305882Y809047D01*
X1306857Y810338D01*
X1307890Y811582D01*
X1308979Y812777D01*
X1310123Y813921D01*
X1311318Y815010D01*
X1312562Y816043D01*
X1313853Y817018D01*
X1315187Y817932D01*
X1316562Y818783D01*
X1317975Y819570D01*
X1319423Y820291D01*
X1320903Y820944D01*
X1322411Y821529D01*
X1323944Y822043D01*
X1325500Y822485D01*
X1327074Y822855D01*
X1328664Y823153D01*
X1330265Y823376D01*
X1331876Y823525D01*
X1333491Y823600D01*
X1335109Y823600D01*
X1336724Y823525D01*
X1338335Y823376D01*
X1339936Y823153D01*
X1341526Y822855D01*
X1343100Y822485D01*
X1344656Y822043D01*
X1346189Y821529D01*
X1347698Y820944D01*
X1349177Y820291D01*
X1350625Y819570D01*
X1352038Y818783D01*
X1353413Y817932D01*
X1354747Y817018D01*
X1356038Y816043D01*
X1357282Y815010D01*
X1358477Y813921D01*
X1359621Y812777D01*
X1360710Y811582D01*
X1361743Y810338D01*
X1362718Y809047D01*
X1363632Y807713D01*
X1364483Y806338D01*
X1365270Y804925D01*
X1365991Y803477D01*
X1366644Y801998D01*
X1367229Y800489D01*
X1367743Y798956D01*
X1368185Y797400D01*
X1368555Y795826D01*
X1368853Y794236D01*
X1369076Y792635D01*
X1369225Y791024D01*
X1369300Y789409D01*
X1369300Y787791D01*
X1369225Y786176D01*
X1369076Y784565D01*
X1368853Y782964D01*
X1368555Y781374D01*
X1368185Y779800D01*
X1367743Y778244D01*
X1367229Y776711D01*
X1366644Y775203D01*
X1365991Y773723D01*
X1365270Y772275D01*
X1364483Y770862D01*
X1363632Y769487D01*
X1362718Y768153D01*
X1361743Y766862D01*
X1360710Y765618D01*
X1359621Y764423D01*
X1358477Y763279D01*
X1357282Y762190D01*
X1356038Y761157D01*
X1354747Y760182D01*
X1353413Y759268D01*
X1352038Y758417D01*
X1350625Y757630D01*
X1349177Y756909D01*
X1347698Y756256D01*
X1346189Y755671D01*
X1344656Y755157D01*
X1343100Y754715D01*
X1341526Y754345D01*
X1339936Y754047D01*
X1338335Y753824D01*
X1336724Y753675D01*
X1335109Y753600D01*
X1333491Y753600D01*
X1331876Y753675D01*
X1330265Y753824D01*
X1328664Y754047D01*
X1327074Y754345D01*
X1325500Y754715D01*
X1323944Y755157D01*
X1322411Y755671D01*
X1320903Y756256D01*
X1319423Y756909D01*
X1317975Y757630D01*
X1316562Y758417D01*
X1315187Y759268D01*
X1313853Y760182D01*
X1312562Y761157D01*
X1311318Y762190D01*
X1310123Y763279D01*
X1308979Y764423D01*
X1307890Y765618D01*
X1306857Y766862D01*
X1305882Y768153D01*
X1304968Y769487D01*
X1304117Y770862D01*
X1303330Y772275D01*
X1302609Y773723D01*
X1301956Y775203D01*
X1301371Y776711D01*
X1300857Y778244D01*
X1300415Y779800D01*
X1300045Y781374D01*
X1299747Y782964D01*
X1299524Y784565D01*
X1299375Y786176D01*
X1299300Y787791D01*
X1299300Y789409D01*
M02*
